<?xml version="1.0" standalone="no"?>
<!DOCTYPE svg PUBLIC "-//W3C//DTD SVG 20010904//EN"
 "http://www.w3.org/TR/2001/REC-SVG-20010904/DTD/svg10.dtd">
<svg version="1.0" xmlns="http://www.w3.org/2000/svg"
 width="448.000000pt" height="448.000000pt" viewBox="0 0 448.000000 448.000000"
 preserveAspectRatio="xMidYMid meet">
<metadata>
Created by potrace 1.14, written by Peter Selinger 2001-2017
</metadata>
<g transform="translate(0.000000,448.000000) scale(0.100000,-0.100000)"
fill="#000000" stroke="none">
<path d="M0 2240 l0 -2240 2240 0 2240 0 0 2240 0 2240 -2240 0 -2240 0 0
-2240z m2743 1370 c167 -82 307 -150 310 -150 5 0 79 -35 217 -105 63 -32 100
-65 120 -110 11 -24 20 -46 20 -50 0 -3 36 -79 80 -170 44 -91 80 -168 80
-173 0 -5 10 -28 23 -53 22 -44 22 -49 25 -523 l3 -478 -38 5 c-55 8 -182 24
-303 39 -58 6 -168 11 -245 10 -121 -2 -138 -1 -122 12 9 7 40 16 68 20 74 10
90 23 83 66 -4 19 -15 46 -24 60 -9 14 -19 30 -21 35 -2 6 -28 52 -58 103 -38
65 -57 90 -65 82 -5 -5 -19 -10 -31 -10 -12 0 -26 -5 -32 -11 -6 -6 -17 -11
-24 -13 -32 -5 -62 -34 -89 -86 -35 -69 -73 -110 -101 -110 -20 0 -21 -3 -15
-42 4 -24 9 -53 13 -65 3 -16 1 -23 -9 -23 -23 0 -39 38 -45 108 -3 37 -10 72
-15 79 -17 21 2 33 52 33 45 0 50 2 56 27 4 14 31 53 61 85 29 32 53 62 53 67
0 11 71 56 83 53 5 -2 0 10 -11 25 -10 15 -30 48 -44 73 -68 122 -99 172 -121
202 -32 43 -80 138 -73 146 8 8 44 -27 52 -51 3 -11 22 -40 41 -66 19 -25 39
-57 45 -71 19 -52 93 -164 96 -147 2 9 -7 31 -19 48 -12 18 -45 75 -72 128
-26 53 -55 103 -62 111 -71 79 -143 240 -107 240 11 0 27 -29 117 -205 45 -88
106 -200 135 -250 29 -49 61 -105 71 -124 10 -18 24 -41 31 -50 7 -9 22 -32
32 -51 10 -19 31 -52 47 -72 16 -20 29 -43 29 -51 0 -8 7 -20 15 -27 8 -7 15
-17 15 -22 0 -13 76 -124 101 -147 13 -12 41 -21 72 -24 29 -3 87 -11 130 -18
75 -11 80 -11 100 9 19 20 20 31 19 198 -1 133 2 185 13 208 15 34 22 82 31
226 4 54 12 103 20 115 25 36 10 117 -43 235 -25 55 -46 103 -82 183 -10 23
-26 62 -36 87 -18 46 -73 105 -116 127 -13 6 -42 19 -64 29 -22 9 -131 61
-242 116 -112 54 -207 98 -213 98 -20 0 -140 63 -175 91 -20 17 -104 49 -127
49 -6 0 -20 -7 -30 -17 -15 -13 -18 -32 -18 -109 0 -52 5 -124 10 -161 6 -38
18 -120 26 -183 9 -63 20 -137 25 -165 26 -165 27 -162 -48 -196 -35 -16 -42
-23 -33 -34 17 -20 2 -25 -122 -36 -62 -6 -129 -15 -148 -20 -19 -4 -62 -16
-95 -24 l-60 -16 3 -74 c3 -70 5 -74 30 -80 65 -16 112 -82 112 -157 0 -20 7
-27 38 -36 20 -6 46 -13 56 -14 42 -6 41 -32 -3 -96 -22 -33 -41 -65 -41 -71
0 -5 -16 -30 -35 -55 -19 -26 -35 -58 -35 -72 0 -37 -42 -74 -84 -74 -50 0
-98 42 -94 84 3 31 4 31 68 36 l65 5 6 37 c3 20 18 55 32 77 15 22 27 45 27
50 0 20 -36 20 -85 0 -64 -26 -145 -20 -197 14 -66 45 -60 123 15 204 41 45
42 47 38 106 -2 42 -8 65 -20 74 -15 11 -14 12 3 13 11 0 17 2 15 4 -6 6 -158
-17 -254 -38 -38 -8 -96 -15 -129 -16 -49 0 -57 -2 -47 -14 9 -11 8 -15 -5
-20 -27 -10 -54 -7 -60 9 -7 18 -53 20 -85 2 -33 -17 -119 -105 -271 -277
-199 -226 -188 -210 -188 -268 0 -48 2 -53 37 -77 21 -14 42 -25 47 -25 11 0
82 -51 136 -97 20 -18 46 -33 57 -33 11 0 28 -9 39 -21 10 -12 35 -29 54 -39
53 -27 82 -63 78 -96 -2 -25 -7 -29 -31 -29 l-29 1 34 -28 c42 -35 141 -88
166 -88 19 0 70 -49 118 -114 24 -33 29 -48 29 -101 0 -90 -40 -131 -87 -88
-14 13 -18 31 -18 85 0 61 -4 75 -31 114 -28 42 -33 45 -62 38 -18 -3 -44 -15
-59 -25 -30 -22 -49 -24 -65 -8 -6 6 -17 9 -25 6 -8 -3 57 -74 177 -192 183
-179 351 -323 363 -310 3 3 -2 19 -11 34 -9 16 -17 36 -17 45 0 9 -4 25 -10
36 -5 11 -14 29 -20 40 -16 32 -12 126 6 141 19 16 47 1 52 -27 2 -10 7 -28
12 -39 5 -11 17 -49 26 -85 9 -36 20 -69 25 -75 10 -15 49 -149 49 -172 0 -11
9 -28 20 -38 20 -18 20 -18 -7 -47 -15 -15 -32 -28 -39 -28 -6 0 -17 -7 -24
-15 -10 -12 -37 -15 -126 -15 -62 0 -115 4 -118 9 -3 5 -31 12 -62 16 -32 4
-64 10 -73 15 -9 4 -37 17 -63 29 -26 12 -50 26 -53 32 -4 5 -23 9 -43 9 -37
0 -52 9 -169 105 -20 17 -33 36 -33 50 0 28 34 55 70 55 26 0 95 21 106 33 4
4 20 7 36 7 16 0 38 5 49 11 11 6 48 13 82 17 34 4 61 11 60 16 0 5 -19 19
-41 31 -98 52 -223 174 -465 450 -48 55 -130 147 -183 205 -125 136 -147 175
-141 238 5 49 49 376 66 497 6 39 13 101 17 138 6 64 12 76 103 220 106 166
163 249 256 373 33 45 78 107 100 139 181 260 205 287 205 234 0 -11 5 -29 10
-40 8 -14 7 -26 -3 -46 -8 -16 -20 -59 -26 -98 -7 -38 -16 -90 -21 -115 -18
-90 -34 -341 -23 -358 6 -11 8 -56 5 -119 -2 -56 -2 -113 2 -128 8 -30 -1 -29
115 -5 73 15 141 62 141 97 0 47 99 163 139 163 22 0 19 4 -21 29 -65 41 -75
75 -33 116 32 33 61 31 118 -5 26 -16 56 -30 67 -30 10 0 35 16 56 35 34 33
36 38 30 77 -4 24 -9 70 -12 103 -6 58 -22 85 -50 85 -7 0 -40 -22 -73 -50
-57 -47 -63 -50 -119 -50 -62 0 -82 11 -82 45 0 16 14 29 48 48 26 14 56 35
67 47 18 20 18 20 -7 20 -13 0 -35 11 -48 25 -13 14 -33 25 -44 25 -22 0 -116
86 -116 107 0 7 -6 13 -14 13 -7 0 -16 11 -18 24 -5 24 -2 25 61 31 36 3 109
10 161 15 52 5 185 16 295 25 110 9 227 20 260 24 152 21 135 26 468 -139z
m-39 -154 c60 -67 81 -106 57 -106 -16 0 -80 30 -86 40 -11 17 -25 11 -25 -11
0 -11 -5 -29 -10 -39 -15 -27 29 -57 59 -40 18 9 21 8 21 -10 0 -31 80 -120
108 -120 12 0 50 -11 84 -25 34 -14 79 -25 100 -25 22 0 51 -6 67 -14 41 -22
160 -152 166 -183 18 -88 41 -156 71 -214 13 -26 24 -56 24 -67 0 -12 5 -24
10 -27 15 -9 13 -260 -2 -288 -44 -77 -101 -90 -161 -37 -19 17 -39 30 -45 30
-6 0 -24 17 -41 37 -30 37 -31 40 -31 140 0 83 3 103 14 103 24 0 46 -42 46
-88 0 -62 23 -92 70 -92 21 0 42 6 49 13 6 8 13 45 17 83 6 60 3 76 -15 111
-19 39 -24 42 -75 48 -66 9 -86 5 -97 -17 -5 -10 -13 -26 -18 -35 -4 -10 -19
-18 -32 -18 -32 0 -47 34 -55 126 -3 41 -14 93 -25 116 -21 48 -26 163 -9 209
9 23 7 30 -15 50 -20 19 -37 24 -76 24 -42 0 -55 5 -78 28 -21 21 -32 25 -44
18 -12 -8 -32 5 -91 58 -42 37 -76 74 -76 82 0 8 11 19 24 24 33 12 41 55 22
111 -22 63 -21 79 8 79 17 0 43 -21 90 -74z m-1320 -1187 c14 -17 26 -39 26
-49 0 -10 13 -32 29 -49 16 -17 31 -43 34 -58 4 -16 12 -51 18 -79 10 -41 10
-58 0 -83 -15 -35 -27 -38 -59 -16 -18 14 -20 19 -9 36 27 44 -43 110 -126
119 -51 5 -52 6 -55 40 -2 28 4 42 32 73 19 21 38 48 42 60 6 21 21 37 36 37
3 0 18 -14 32 -31z m800 -394 c-2 -12 -50 -39 -87 -49 -24 -6 -27 -4 -19 9 21
39 110 72 106 40z m306 -204 l0 -88 57 -7 c104 -12 118 -52 49 -143 -87 -114
-157 -180 -205 -193 -66 -17 -103 -6 -165 51 -77 70 -95 147 -47 203 21 24 95
56 130 56 16 0 42 5 60 11 31 11 31 12 31 80 0 65 -1 69 -22 69 -29 -1 -146
-24 -223 -44 -38 -10 -100 -15 -170 -15 l-110 1 70 14 c39 8 97 18 130 24 33
6 78 15 100 21 77 21 220 47 268 48 l47 1 0 -89z m-687 62 c-18 -2 -48 -2 -65
0 -18 2 -4 4 32 4 36 0 50 -2 33 -4z m-95 -80 c-10 -2 -26 -2 -35 0 -10 3 -2
5 17 5 19 0 27 -2 18 -5z m1252 -658 c6 -8 9 -23 5 -35 -6 -19 -14 -20 -123
-20 -64 0 -144 4 -177 9 -33 5 -111 13 -173 16 -77 5 -110 11 -104 17 15 15
151 25 368 27 157 1 194 -2 204 -14z m1115 -295 l39 -40 -42 -43 -42 -43 20
-22 c11 -11 20 -26 20 -32 0 -6 10 -4 23 5 21 13 26 13 43 0 10 -8 38 -15 62
-15 l42 0 0 -45 0 -45 -58 0 c-59 0 -81 10 -100 45 l-11 20 -1 -20 c0 -15 -2
-17 -9 -6 -7 10 -13 11 -29 2 -18 -9 -25 -8 -42 9 -11 11 -20 25 -20 32 0 7
-16 -3 -35 -22 -33 -32 -35 -33 -54 -16 -11 10 -25 15 -31 11 -7 -4 -4 -13 11
-26 18 -15 19 -21 9 -34 -7 -8 -16 -12 -21 -9 -5 2 -27 -4 -50 -15 -59 -29
-74 -15 -44 43 8 15 15 39 15 52 0 13 8 30 18 38 9 8 56 52 104 97 69 65 90
80 101 71 18 -15 30 -3 16 14 -12 15 -4 34 15 34 6 0 30 -18 51 -40z m-1515
-50 c12 -8 9 -10 -12 -10 -15 0 -30 5 -33 10 -8 13 25 13 45 0z"/>
<path d="M1915 2720 c-13 -6 -15 -9 -5 -9 8 0 22 4 30 9 18 12 2 12 -25 0z"/>
<path d="M1926 2496 c-29 -27 -36 -41 -36 -70 0 -57 14 -76 58 -76 76 0 107
74 62 148 -25 41 -40 40 -84 -2z"/>
<path d="M1059 1727 c7 -9 27 -17 44 -17 40 0 24 17 -23 26 -32 7 -34 6 -21
-9z"/>
<path d="M3037 2993 c-4 -3 -7 -27 -7 -52 1 -61 39 -109 93 -118 34 -5 37 -4
37 19 0 13 -7 33 -15 44 -8 10 -15 27 -15 37 0 31 -39 77 -64 77 -12 0 -26 -3
-29 -7z"/>
<path d="M2381 1530 c-93 -10 -154 -47 -159 -98 -2 -19 3 -38 12 -48 9 -8 16
-21 16 -29 0 -19 67 -75 91 -75 41 0 121 62 153 118 59 104 62 113 41 128 -20
15 -40 16 -154 4z"/>
</g>
</svg>
